<svg xmlns="http://www.w3.org/2000/svg" viewBox="0 0 64 64" id="list"><path fill="#ffa88a" d="M59.42,20.24l-7.57,9L38.67,45,31,48.28,33,40.18,48.75,21.36l5-5.91a2.48,2.48,0,0,1,3.5-.3l1.9,1.59A2.49,2.49,0,0,1,59.42,20.24Z"></path><path fill="#fff" d="M46,11.83V59a2,2,0,0,1-2,2H6a2,2,0,0,1-2-2V5A2,2,0,0,1,6,3H37.17a2,2,0,0,1,1.42.59l6.82,6.82A2,2,0,0,1,46,11.83Z"></path><path fill="#e6e6e6" d="M46 20V40.9l-5.49 6.54L30.39 51.83a2 2 0 0 1-2.74-2.3l2.56-10.74zM46 11.83V14H37a2 2 0 0 1-2-2V3h2.17a2 2 0 0 1 1.42.59l6.82 6.82A2 2 0 0 1 46 11.83z"></path><path fill="#fd9467" d="M51.85,29.26,38.67,45,31,48.28,33,40.18,48.75,21.36A17.26,17.26,0,0,1,51.85,29.26Z"></path><polygon fill="#61c3b6" points="38 3 38 11 46 11 38 3"></polygon><path fill="#61c3b6" d="M59.42 20.24L57 23.09l-5.7-4.79 2.39-2.85a2.48 2.48 0 0 1 3.5-.3l1.9 1.59A2.49 2.49 0 0 1 59.42 20.24zM22 14H33a1 1 0 0 0 0-2H22a1 1 0 0 0 0 2zM21 26H39a1 1 0 0 0 0-2H21a1 1 0 0 0 0 2z"></path><path fill="#fd9467" d="M29,37a1,1,0,0,0-1-1H21a1,1,0,0,0,0,2h7A1,1,0,0,0,29,37Z"></path><path fill="#61c3b6" d="M17,33H11a1,1,0,0,0-1,1v6a1,1,0,0,0,1,1h6a1,1,0,0,0,1-1V34A1,1,0,0,0,17,33Zm-1,6H12V35h4Z"></path><path fill="#fd9467" d="M25,48H21a1,1,0,0,0,0,2h4a1,1,0,0,0,0-2Z"></path><path fill="#61c3b6" d="M17,45H11a1,1,0,0,0-1,1v6a1,1,0,0,0,1,1h6a1,1,0,0,0,1-1V46A1,1,0,0,0,17,45Zm-1,6H12V47h4Z"></path><path fill="#fd9467" d="M13.29 28.71A1 1 0 0 0 14 29h.16a1 1 0 0 0 .73-.54l3-6a1 1 0 1 0-1.78-.9l-2.38 4.76-2-2a1 1 0 0 0-1.42 1.42zM13.29 16.71A1 1 0 0 0 14 17h.16a1 1 0 0 0 .73-.54l3-6a1 1 0 1 0-1.78-.9l-2.38 4.76-2-2a1 1 0 0 0-1.42 1.42z"></path><polygon fill="#fff" points="38.67 44.97 31.03 48.28 32.96 40.18 38.67 44.97"></polygon><path fill="#4e5b5f" d="M61,18.34A3.43,3.43,0,0,0,59.76,16l-1.91-1.6a3.48,3.48,0,0,0-4.9.43l-2.4,2.85h0L47,21.9V11.83a3,3,0,0,0-.88-2.12L39.29,2.88A3,3,0,0,0,37.17,2H6A3,3,0,0,0,3,5V59a3,3,0,0,0,3,3H44a3,3,0,0,0,3-3V36.6L60.19,20.88A3.48,3.48,0,0,0,61,18.34ZM39,5.41,43.59,10H39ZM45,59a1,1,0,0,1-1,1H6a1,1,0,0,1-1-1V5A1,1,0,0,1,6,4H37v7a1,1,0,0,0,1,1h7V24a1,1,0,0,0,0,.23L32.2,39.54a.93.93,0,0,0-.2.38s0,0,0,0l-1.93,8.1a1,1,0,0,0,.33,1,1,1,0,0,0,.64.24,1.14,1.14,0,0,0,.4-.08l7.64-3.32h0a1,1,0,0,0,.36-.27L45,39ZM33.56,42l3.23,2.71-4.32,1.88Zm5,1.58-4.18-3.5L51.44,19.71l4.18,3.51Zm20.1-24L56.9,21.68l-4.17-3.5,1.75-2.09a1.49,1.49,0,0,1,2.09-.18l1.9,1.6a1.49,1.49,0,0,1,.18,2.09Z"></path></svg>